<svg id="Layer_1" data-name="Layer 1" xmlns="http://www.w3.org/2000/svg" viewBox="0 0 44 27"><defs><style>.cls-1{fill:#ebd2da;}</style></defs><path class="cls-1" d="M27,39.05c0-1.68,2.25-3,5-3H66c2.75,0,5,1.37,5,3s-2.25,3.05-5,3.05H32C29.25,42.1,27,40.72,27,39.05Z" transform="translate(-27 -36)"/><path class="cls-1" d="M27,49.5c0-1.68,2.25-3,5-3H66c2.75,0,5,1.37,5,3s-2.25,3-5,3H32C29.25,52.55,27,51.18,27,49.5Z" transform="translate(-27 -36)"/><path class="cls-1" d="M27,60c0-1.68,2.25-3.05,5-3.05H66c2.75,0,5,1.37,5,3.05s-2.25,3-5,3H32C29.25,63,27,61.63,27,60Z" transform="translate(-27 -36)"/></svg>