<svg id="Layer_1" data-name="Layer 1" xmlns="http://www.w3.org/2000/svg" viewBox="0 0 90 90"><path d="M66.79,45.81a8,8,0,0,0-4.05-1,8,8,0,0,0-4,1,7.73,7.73,0,0,0-2.85,2.77,7.63,7.63,0,0,0-1,4,7.72,7.72,0,0,0,1,4,7.61,7.61,0,0,0,2.85,2.81,8,8,0,0,0,4,1,8,8,0,0,0,4.05-1,7.43,7.43,0,0,0,2.81-2.81,7.9,7.9,0,0,0,1-4,7.81,7.81,0,0,0-1-4A7.55,7.55,0,0,0,66.79,45.81Z" transform="translate(-4 -5)"/><path d="M40.38,44.69a5.17,5.17,0,0,0,.89-3,6,6,0,0,0-.89-3.25,6.07,6.07,0,0,0-2.45-2.2,7.84,7.84,0,0,0-3.61-.8h-5.7v12h5.7a8.52,8.52,0,0,0,3.61-.73A6,6,0,0,0,40.38,44.69Z" transform="translate(-4 -5)"/><path d="M49,5A45,45,0,1,0,94,50,45,45,0,0,0,49,5ZM46.79,62.92a2.09,2.09,0,0,1-2,1.06,2.65,2.65,0,0,1-1.14-.25,2.25,2.25,0,0,1-.87-.79L35.13,51.41c-.27,0-.53,0-.81,0h-5.7V61.81A2.05,2.05,0,0,1,28,63.35,2.29,2.29,0,0,1,26.3,64a2.33,2.33,0,0,1-1.65-.63A2,2,0,0,1,24,61.81V33.64a2,2,0,0,1,.67-1.56,2.4,2.4,0,0,1,1.65-.6h8a13,13,0,0,1,5.93,1.31,10,10,0,0,1,4,3.6,9.8,9.8,0,0,1,1.44,5.33,9,9,0,0,1-1.44,5,9.81,9.81,0,0,1-4,3.45c-.16.08-.33.13-.49.2l6.81,10.25A2.06,2.06,0,0,1,46.79,62.92ZM75,52.58a11,11,0,0,1-1.62,5.9A11.72,11.72,0,0,1,69,62.62a12.65,12.65,0,0,1-6.24,1.52,12.78,12.78,0,0,1-6.26-1.52,11.63,11.63,0,0,1-4.41-4.14,11,11,0,0,1-1.62-5.9,11.54,11.54,0,0,1,1.49-5.89A11,11,0,0,1,56,42.57a11.35,11.35,0,0,1,5.84-1.52,11.57,11.57,0,0,1,4.86,1,10.84,10.84,0,0,1,3.74,2.77V33.6a2,2,0,0,1,.64-1.54,2.61,2.61,0,0,1,3.28,0A2,2,0,0,1,75,33.6Z" transform="translate(-4 -5)"/></svg>